<mxfile host="www.draw.io" modified="2019-12-14T11:49:33.440Z" agent="Mozilla/5.0 (Windows NT 6.1; Win64; x64; rv:71.0) Gecko/20100101 Firefox/71.0" etag="1EOFZvJUeY1mXhLYcaCT" version="12.4.2" type="github" pages="1">
  <diagram id="AjQRMNMVKlbtVX7BQiwG" name="Page-1">
    <mxGraphModel dx="1185" dy="693" grid="1" gridSize="10" guides="1" tooltips="1" connect="1" arrows="1" fold="1" page="1" pageScale="1" pageWidth="1654" pageHeight="1169" math="0" shadow="0">
      <root>
        <mxCell id="0"/>
        <mxCell id="1" parent="0"/>
        <mxCell id="vpfBsJLcN1-FIoaqTsZ0-9" style="edgeStyle=orthogonalEdgeStyle;rounded=0;orthogonalLoop=1;jettySize=auto;html=1;exitX=0.5;exitY=0;exitDx=0;exitDy=0;entryX=0;entryY=0.5;entryDx=0;entryDy=0;endArrow=none;endFill=0;strokeWidth=3;" parent="1" source="vpfBsJLcN1-FIoaqTsZ0-1" target="vpfBsJLcN1-FIoaqTsZ0-7" edge="1">
          <mxGeometry relative="1" as="geometry"/>
        </mxCell>
        <mxCell id="vpfBsJLcN1-FIoaqTsZ0-18" style="edgeStyle=orthogonalEdgeStyle;rounded=0;orthogonalLoop=1;jettySize=auto;html=1;exitX=0.5;exitY=1;exitDx=0;exitDy=0;endArrow=none;endFill=0;strokeWidth=3;" parent="1" source="vpfBsJLcN1-FIoaqTsZ0-1" edge="1">
          <mxGeometry relative="1" as="geometry">
            <mxPoint x="320" y="320" as="targetPoint"/>
          </mxGeometry>
        </mxCell>
        <mxCell id="vpfBsJLcN1-FIoaqTsZ0-1" value="" style="rhombus;whiteSpace=wrap;html=1;strokeWidth=3;" parent="1" vertex="1">
          <mxGeometry x="280" y="200" width="80" height="80" as="geometry"/>
        </mxCell>
        <mxCell id="vpfBsJLcN1-FIoaqTsZ0-2" value="" style="endArrow=classic;html=1;" parent="1" edge="1">
          <mxGeometry width="50" height="50" relative="1" as="geometry">
            <mxPoint x="320" y="255" as="sourcePoint"/>
            <mxPoint x="320" y="225" as="targetPoint"/>
          </mxGeometry>
        </mxCell>
        <mxCell id="vpfBsJLcN1-FIoaqTsZ0-25" style="edgeStyle=orthogonalEdgeStyle;rounded=0;orthogonalLoop=1;jettySize=auto;html=1;exitX=0.5;exitY=1;exitDx=0;exitDy=0;endArrow=none;endFill=0;strokeWidth=3;" parent="1" source="vpfBsJLcN1-FIoaqTsZ0-3" edge="1">
          <mxGeometry relative="1" as="geometry">
            <mxPoint x="420.20000000000005" y="320" as="targetPoint"/>
          </mxGeometry>
        </mxCell>
        <mxCell id="vpfBsJLcN1-FIoaqTsZ0-3" value="R" style="rounded=0;whiteSpace=wrap;html=1;strokeWidth=3;" parent="1" vertex="1">
          <mxGeometry x="400" y="200" width="40" height="80" as="geometry"/>
        </mxCell>
        <mxCell id="vpfBsJLcN1-FIoaqTsZ0-8" style="edgeStyle=orthogonalEdgeStyle;rounded=0;orthogonalLoop=1;jettySize=auto;html=1;exitX=0.5;exitY=1;exitDx=0;exitDy=0;endArrow=none;endFill=0;entryX=0.5;entryY=0;entryDx=0;entryDy=0;strokeWidth=3;" parent="1" source="vpfBsJLcN1-FIoaqTsZ0-7" target="vpfBsJLcN1-FIoaqTsZ0-3" edge="1">
          <mxGeometry relative="1" as="geometry">
            <mxPoint x="420" y="202.9126213592233" as="targetPoint"/>
          </mxGeometry>
        </mxCell>
        <mxCell id="vpfBsJLcN1-FIoaqTsZ0-10" style="edgeStyle=orthogonalEdgeStyle;rounded=0;orthogonalLoop=1;jettySize=auto;html=1;exitX=1;exitY=0.5;exitDx=0;exitDy=0;endArrow=none;endFill=0;entryX=0;entryY=0.5;entryDx=0;entryDy=0;strokeWidth=3;" parent="1" source="vpfBsJLcN1-FIoaqTsZ0-7" target="vpfBsJLcN1-FIoaqTsZ0-11" edge="1">
          <mxGeometry relative="1" as="geometry">
            <mxPoint x="480" y="160" as="targetPoint"/>
          </mxGeometry>
        </mxCell>
        <mxCell id="vpfBsJLcN1-FIoaqTsZ0-7" value="" style="ellipse;whiteSpace=wrap;html=1;" parent="1" vertex="1">
          <mxGeometry x="415" y="155" width="10" height="10" as="geometry"/>
        </mxCell>
        <mxCell id="vpfBsJLcN1-FIoaqTsZ0-11" value="" style="rounded=0;whiteSpace=wrap;html=1;fillColor=#000000;" parent="1" vertex="1">
          <mxGeometry x="475" y="145" width="10" height="30" as="geometry"/>
        </mxCell>
        <mxCell id="vpfBsJLcN1-FIoaqTsZ0-12" value="" style="endArrow=none;html=1;strokeWidth=3;" parent="1" edge="1">
          <mxGeometry width="50" height="50" relative="1" as="geometry">
            <mxPoint x="290" y="340" as="sourcePoint"/>
            <mxPoint x="300" y="320" as="targetPoint"/>
          </mxGeometry>
        </mxCell>
        <mxCell id="vpfBsJLcN1-FIoaqTsZ0-13" value="" style="endArrow=none;html=1;strokeWidth=3;" parent="1" edge="1">
          <mxGeometry width="50" height="50" relative="1" as="geometry">
            <mxPoint x="300" y="340" as="sourcePoint"/>
            <mxPoint x="310" y="320" as="targetPoint"/>
          </mxGeometry>
        </mxCell>
        <mxCell id="vpfBsJLcN1-FIoaqTsZ0-14" value="" style="endArrow=none;html=1;strokeWidth=3;" parent="1" edge="1">
          <mxGeometry width="50" height="50" relative="1" as="geometry">
            <mxPoint x="310" y="340" as="sourcePoint"/>
            <mxPoint x="320" y="320" as="targetPoint"/>
          </mxGeometry>
        </mxCell>
        <mxCell id="vpfBsJLcN1-FIoaqTsZ0-15" value="" style="endArrow=none;html=1;strokeWidth=3;" parent="1" edge="1">
          <mxGeometry width="50" height="50" relative="1" as="geometry">
            <mxPoint x="320" y="340" as="sourcePoint"/>
            <mxPoint x="330" y="320" as="targetPoint"/>
          </mxGeometry>
        </mxCell>
        <mxCell id="vpfBsJLcN1-FIoaqTsZ0-16" value="" style="endArrow=none;html=1;strokeWidth=3;" parent="1" edge="1">
          <mxGeometry width="50" height="50" relative="1" as="geometry">
            <mxPoint x="300" y="320" as="sourcePoint"/>
            <mxPoint x="340" y="320" as="targetPoint"/>
          </mxGeometry>
        </mxCell>
        <mxCell id="vpfBsJLcN1-FIoaqTsZ0-17" value="" style="endArrow=none;html=1;strokeWidth=3;" parent="1" edge="1">
          <mxGeometry width="50" height="50" relative="1" as="geometry">
            <mxPoint x="330" y="340" as="sourcePoint"/>
            <mxPoint x="340" y="320" as="targetPoint"/>
          </mxGeometry>
        </mxCell>
        <mxCell id="vpfBsJLcN1-FIoaqTsZ0-19" value="" style="endArrow=none;html=1;strokeWidth=3;" parent="1" edge="1">
          <mxGeometry width="50" height="50" relative="1" as="geometry">
            <mxPoint x="390" y="340" as="sourcePoint"/>
            <mxPoint x="400" y="320" as="targetPoint"/>
          </mxGeometry>
        </mxCell>
        <mxCell id="vpfBsJLcN1-FIoaqTsZ0-20" value="" style="endArrow=none;html=1;strokeWidth=3;" parent="1" edge="1">
          <mxGeometry width="50" height="50" relative="1" as="geometry">
            <mxPoint x="400" y="340" as="sourcePoint"/>
            <mxPoint x="410" y="320" as="targetPoint"/>
          </mxGeometry>
        </mxCell>
        <mxCell id="vpfBsJLcN1-FIoaqTsZ0-21" value="" style="endArrow=none;html=1;strokeWidth=3;" parent="1" edge="1">
          <mxGeometry width="50" height="50" relative="1" as="geometry">
            <mxPoint x="410" y="340" as="sourcePoint"/>
            <mxPoint x="420" y="320" as="targetPoint"/>
          </mxGeometry>
        </mxCell>
        <mxCell id="vpfBsJLcN1-FIoaqTsZ0-22" value="" style="endArrow=none;html=1;strokeWidth=3;" parent="1" edge="1">
          <mxGeometry width="50" height="50" relative="1" as="geometry">
            <mxPoint x="420" y="340" as="sourcePoint"/>
            <mxPoint x="430" y="320" as="targetPoint"/>
          </mxGeometry>
        </mxCell>
        <mxCell id="vpfBsJLcN1-FIoaqTsZ0-23" value="" style="endArrow=none;html=1;strokeWidth=3;" parent="1" edge="1">
          <mxGeometry width="50" height="50" relative="1" as="geometry">
            <mxPoint x="400" y="320" as="sourcePoint"/>
            <mxPoint x="440" y="320" as="targetPoint"/>
          </mxGeometry>
        </mxCell>
        <mxCell id="vpfBsJLcN1-FIoaqTsZ0-24" value="" style="endArrow=none;html=1;strokeWidth=3;" parent="1" edge="1">
          <mxGeometry width="50" height="50" relative="1" as="geometry">
            <mxPoint x="430" y="340" as="sourcePoint"/>
            <mxPoint x="440" y="320" as="targetPoint"/>
          </mxGeometry>
        </mxCell>
        <mxCell id="vpfBsJLcN1-FIoaqTsZ0-76" style="edgeStyle=orthogonalEdgeStyle;rounded=0;orthogonalLoop=1;jettySize=auto;html=1;exitX=0;exitY=0.5;exitDx=0;exitDy=0;entryX=1;entryY=0.5;entryDx=0;entryDy=0;endArrow=none;endFill=0;strokeWidth=3;" parent="1" source="vpfBsJLcN1-FIoaqTsZ0-36" target="vpfBsJLcN1-FIoaqTsZ0-75" edge="1">
          <mxGeometry relative="1" as="geometry"/>
        </mxCell>
        <mxCell id="vpfBsJLcN1-FIoaqTsZ0-36" value="Lf" style="rounded=0;whiteSpace=wrap;html=1;strokeWidth=3;" parent="1" vertex="1">
          <mxGeometry x="600" y="140" width="80" height="40" as="geometry"/>
        </mxCell>
        <mxCell id="vpfBsJLcN1-FIoaqTsZ0-37" value="" style="endArrow=none;html=1;strokeWidth=3;" parent="1" edge="1">
          <mxGeometry width="50" height="50" relative="1" as="geometry">
            <mxPoint x="690" y="340" as="sourcePoint"/>
            <mxPoint x="700" y="320" as="targetPoint"/>
          </mxGeometry>
        </mxCell>
        <mxCell id="vpfBsJLcN1-FIoaqTsZ0-38" value="" style="endArrow=none;html=1;strokeWidth=3;" parent="1" edge="1">
          <mxGeometry width="50" height="50" relative="1" as="geometry">
            <mxPoint x="700" y="340" as="sourcePoint"/>
            <mxPoint x="710" y="320" as="targetPoint"/>
          </mxGeometry>
        </mxCell>
        <mxCell id="vpfBsJLcN1-FIoaqTsZ0-39" value="" style="endArrow=none;html=1;strokeWidth=3;" parent="1" edge="1">
          <mxGeometry width="50" height="50" relative="1" as="geometry">
            <mxPoint x="710" y="340" as="sourcePoint"/>
            <mxPoint x="720" y="320" as="targetPoint"/>
          </mxGeometry>
        </mxCell>
        <mxCell id="vpfBsJLcN1-FIoaqTsZ0-40" value="" style="endArrow=none;html=1;strokeWidth=3;" parent="1" edge="1">
          <mxGeometry width="50" height="50" relative="1" as="geometry">
            <mxPoint x="720" y="340" as="sourcePoint"/>
            <mxPoint x="730" y="320" as="targetPoint"/>
          </mxGeometry>
        </mxCell>
        <mxCell id="vpfBsJLcN1-FIoaqTsZ0-41" value="" style="endArrow=none;html=1;strokeWidth=3;" parent="1" edge="1">
          <mxGeometry width="50" height="50" relative="1" as="geometry">
            <mxPoint x="700" y="320" as="sourcePoint"/>
            <mxPoint x="740" y="320" as="targetPoint"/>
          </mxGeometry>
        </mxCell>
        <mxCell id="vpfBsJLcN1-FIoaqTsZ0-42" value="" style="endArrow=none;html=1;strokeWidth=3;" parent="1" edge="1">
          <mxGeometry width="50" height="50" relative="1" as="geometry">
            <mxPoint x="730" y="340" as="sourcePoint"/>
            <mxPoint x="740" y="320" as="targetPoint"/>
          </mxGeometry>
        </mxCell>
        <mxCell id="vpfBsJLcN1-FIoaqTsZ0-49" style="edgeStyle=orthogonalEdgeStyle;rounded=0;orthogonalLoop=1;jettySize=auto;html=1;exitX=0.5;exitY=1;exitDx=0;exitDy=0;endArrow=none;endFill=0;strokeWidth=3;" parent="1" source="vpfBsJLcN1-FIoaqTsZ0-48" edge="1">
          <mxGeometry relative="1" as="geometry">
            <mxPoint x="720" y="320" as="targetPoint"/>
          </mxGeometry>
        </mxCell>
        <mxCell id="vpfBsJLcN1-FIoaqTsZ0-50" style="edgeStyle=orthogonalEdgeStyle;rounded=0;orthogonalLoop=1;jettySize=auto;html=1;exitX=0.5;exitY=0;exitDx=0;exitDy=0;entryX=1;entryY=0.5;entryDx=0;entryDy=0;endArrow=none;endFill=0;strokeWidth=3;" parent="1" source="vpfBsJLcN1-FIoaqTsZ0-48" target="vpfBsJLcN1-FIoaqTsZ0-36" edge="1">
          <mxGeometry relative="1" as="geometry"/>
        </mxCell>
        <mxCell id="vpfBsJLcN1-FIoaqTsZ0-48" value="" style="ellipse;whiteSpace=wrap;html=1;aspect=fixed;strokeWidth=3;" parent="1" vertex="1">
          <mxGeometry x="680" y="200" width="80" height="80" as="geometry"/>
        </mxCell>
        <mxCell id="vpfBsJLcN1-FIoaqTsZ0-51" value="" style="endArrow=none;html=1;strokeWidth=3;" parent="1" edge="1">
          <mxGeometry width="50" height="50" relative="1" as="geometry">
            <mxPoint x="700" y="240" as="sourcePoint"/>
            <mxPoint x="740" y="240" as="targetPoint"/>
            <Array as="points">
              <mxPoint x="710" y="220"/>
              <mxPoint x="730" y="260"/>
            </Array>
          </mxGeometry>
        </mxCell>
        <mxCell id="vpfBsJLcN1-FIoaqTsZ0-53" value="" style="endArrow=open;html=1;endFill=0;strokeWidth=3;" parent="1" edge="1">
          <mxGeometry width="50" height="50" relative="1" as="geometry">
            <mxPoint x="780" y="280" as="sourcePoint"/>
            <mxPoint x="780" y="200" as="targetPoint"/>
          </mxGeometry>
        </mxCell>
        <mxCell id="vpfBsJLcN1-FIoaqTsZ0-55" value="Uf = 230V" style="text;html=1;align=center;verticalAlign=middle;resizable=0;points=[];;labelBackgroundColor=#ffffff;" parent="vpfBsJLcN1-FIoaqTsZ0-53" vertex="1" connectable="0">
          <mxGeometry x="0.1393" y="-2" relative="1" as="geometry">
            <mxPoint x="28" y="6" as="offset"/>
          </mxGeometry>
        </mxCell>
        <mxCell id="vpfBsJLcN1-FIoaqTsZ0-56" value="PCC" style="text;html=1;strokeColor=none;fillColor=none;align=center;verticalAlign=middle;whiteSpace=wrap;rounded=0;" parent="1" vertex="1">
          <mxGeometry x="460" y="125" width="40" height="20" as="geometry"/>
        </mxCell>
        <mxCell id="vpfBsJLcN1-FIoaqTsZ0-57" value="" style="shape=flexArrow;endArrow=classic;html=1;" parent="1" edge="1">
          <mxGeometry width="50" height="50" relative="1" as="geometry">
            <mxPoint x="400" y="80" as="sourcePoint"/>
            <mxPoint x="560" y="80" as="targetPoint"/>
          </mxGeometry>
        </mxCell>
        <mxCell id="vpfBsJLcN1-FIoaqTsZ0-58" value="Q max = 10kvar" style="text;html=1;align=center;verticalAlign=middle;resizable=0;points=[];;labelBackgroundColor=none;" parent="vpfBsJLcN1-FIoaqTsZ0-57" vertex="1" connectable="0">
          <mxGeometry x="0.2841" y="-1" relative="1" as="geometry">
            <mxPoint x="-21.5" y="-11" as="offset"/>
          </mxGeometry>
        </mxCell>
        <mxCell id="vpfBsJLcN1-FIoaqTsZ0-61" value="" style="shape=flexArrow;endArrow=classic;html=1;" parent="1" edge="1">
          <mxGeometry width="50" height="50" relative="1" as="geometry">
            <mxPoint x="400" y="40" as="sourcePoint"/>
            <mxPoint x="560" y="40" as="targetPoint"/>
          </mxGeometry>
        </mxCell>
        <mxCell id="vpfBsJLcN1-FIoaqTsZ0-62" value="P max = 10kW" style="text;html=1;align=center;verticalAlign=middle;resizable=0;points=[];;labelBackgroundColor=none;" parent="vpfBsJLcN1-FIoaqTsZ0-61" vertex="1" connectable="0">
          <mxGeometry x="0.2841" y="-1" relative="1" as="geometry">
            <mxPoint x="-21.5" y="-11" as="offset"/>
          </mxGeometry>
        </mxCell>
        <mxCell id="vpfBsJLcN1-FIoaqTsZ0-63" value="" style="endArrow=block;html=1;endFill=1;strokeWidth=3;" parent="1" edge="1">
          <mxGeometry width="50" height="50" relative="1" as="geometry">
            <mxPoint x="260" y="280" as="sourcePoint"/>
            <mxPoint x="260" y="200" as="targetPoint"/>
          </mxGeometry>
        </mxCell>
        <mxCell id="vpfBsJLcN1-FIoaqTsZ0-64" value="iabc" style="text;html=1;align=center;verticalAlign=middle;resizable=0;points=[];;labelBackgroundColor=#ffffff;" parent="vpfBsJLcN1-FIoaqTsZ0-63" vertex="1" connectable="0">
          <mxGeometry x="0.1393" y="-2" relative="1" as="geometry">
            <mxPoint x="-22" y="5.5" as="offset"/>
          </mxGeometry>
        </mxCell>
        <mxCell id="vpfBsJLcN1-FIoaqTsZ0-67" style="edgeStyle=orthogonalEdgeStyle;rounded=0;orthogonalLoop=1;jettySize=auto;html=1;exitX=0.5;exitY=1;exitDx=0;exitDy=0;endArrow=none;endFill=0;strokeWidth=3;" parent="1" source="vpfBsJLcN1-FIoaqTsZ0-68" edge="1">
          <mxGeometry relative="1" as="geometry">
            <mxPoint x="540" y="320" as="targetPoint"/>
          </mxGeometry>
        </mxCell>
        <mxCell id="vpfBsJLcN1-FIoaqTsZ0-78" style="edgeStyle=orthogonalEdgeStyle;rounded=0;orthogonalLoop=1;jettySize=auto;html=1;exitX=0.5;exitY=0;exitDx=0;exitDy=0;entryX=0.5;entryY=1;entryDx=0;entryDy=0;endArrow=none;endFill=0;strokeWidth=3;" parent="1" source="vpfBsJLcN1-FIoaqTsZ0-68" target="vpfBsJLcN1-FIoaqTsZ0-75" edge="1">
          <mxGeometry relative="1" as="geometry"/>
        </mxCell>
        <mxCell id="vpfBsJLcN1-FIoaqTsZ0-68" value="Rf" style="rounded=0;whiteSpace=wrap;html=1;strokeWidth=3;" parent="1" vertex="1">
          <mxGeometry x="520" y="200" width="40" height="80" as="geometry"/>
        </mxCell>
        <mxCell id="vpfBsJLcN1-FIoaqTsZ0-69" value="" style="endArrow=none;html=1;strokeWidth=3;" parent="1" edge="1">
          <mxGeometry width="50" height="50" relative="1" as="geometry">
            <mxPoint x="510" y="340" as="sourcePoint"/>
            <mxPoint x="520" y="320" as="targetPoint"/>
          </mxGeometry>
        </mxCell>
        <mxCell id="vpfBsJLcN1-FIoaqTsZ0-70" value="" style="endArrow=none;html=1;strokeWidth=3;" parent="1" edge="1">
          <mxGeometry width="50" height="50" relative="1" as="geometry">
            <mxPoint x="520" y="340" as="sourcePoint"/>
            <mxPoint x="530" y="320" as="targetPoint"/>
          </mxGeometry>
        </mxCell>
        <mxCell id="vpfBsJLcN1-FIoaqTsZ0-71" value="" style="endArrow=none;html=1;strokeWidth=3;" parent="1" edge="1">
          <mxGeometry width="50" height="50" relative="1" as="geometry">
            <mxPoint x="530" y="340" as="sourcePoint"/>
            <mxPoint x="540" y="320" as="targetPoint"/>
          </mxGeometry>
        </mxCell>
        <mxCell id="vpfBsJLcN1-FIoaqTsZ0-72" value="" style="endArrow=none;html=1;strokeWidth=3;" parent="1" edge="1">
          <mxGeometry width="50" height="50" relative="1" as="geometry">
            <mxPoint x="540" y="340" as="sourcePoint"/>
            <mxPoint x="550" y="320" as="targetPoint"/>
          </mxGeometry>
        </mxCell>
        <mxCell id="vpfBsJLcN1-FIoaqTsZ0-73" value="" style="endArrow=none;html=1;strokeWidth=3;" parent="1" edge="1">
          <mxGeometry width="50" height="50" relative="1" as="geometry">
            <mxPoint x="520" y="320" as="sourcePoint"/>
            <mxPoint x="560" y="320" as="targetPoint"/>
          </mxGeometry>
        </mxCell>
        <mxCell id="vpfBsJLcN1-FIoaqTsZ0-74" value="" style="endArrow=none;html=1;strokeWidth=3;" parent="1" edge="1">
          <mxGeometry width="50" height="50" relative="1" as="geometry">
            <mxPoint x="550" y="340" as="sourcePoint"/>
            <mxPoint x="560" y="320" as="targetPoint"/>
          </mxGeometry>
        </mxCell>
        <mxCell id="vpfBsJLcN1-FIoaqTsZ0-77" style="edgeStyle=orthogonalEdgeStyle;rounded=0;orthogonalLoop=1;jettySize=auto;html=1;exitX=0;exitY=0.5;exitDx=0;exitDy=0;entryX=1;entryY=0.5;entryDx=0;entryDy=0;endArrow=none;endFill=0;strokeWidth=3;" parent="1" source="vpfBsJLcN1-FIoaqTsZ0-75" target="vpfBsJLcN1-FIoaqTsZ0-11" edge="1">
          <mxGeometry relative="1" as="geometry"/>
        </mxCell>
        <mxCell id="vpfBsJLcN1-FIoaqTsZ0-75" value="" style="ellipse;whiteSpace=wrap;html=1;" parent="1" vertex="1">
          <mxGeometry x="535" y="155" width="10" height="10" as="geometry"/>
        </mxCell>
        <mxCell id="vpfBsJLcN1-FIoaqTsZ0-136" style="edgeStyle=orthogonalEdgeStyle;rounded=0;orthogonalLoop=1;jettySize=auto;html=1;exitX=1;exitY=0.5;exitDx=0;exitDy=0;endArrow=none;endFill=0;entryX=0;entryY=0.5;entryDx=0;entryDy=0;strokeWidth=3;" parent="1" source="vpfBsJLcN1-FIoaqTsZ0-179" target="vpfBsJLcN1-FIoaqTsZ0-138" edge="1">
          <mxGeometry relative="1" as="geometry">
            <mxPoint x="480.5" y="480" as="targetPoint"/>
            <mxPoint x="425.2068965517242" y="480.1034482758621" as="sourcePoint"/>
          </mxGeometry>
        </mxCell>
        <mxCell id="vpfBsJLcN1-FIoaqTsZ0-138" value="" style="rounded=0;whiteSpace=wrap;html=1;fillColor=#000000;" parent="1" vertex="1">
          <mxGeometry x="475.5" y="465" width="10" height="30" as="geometry"/>
        </mxCell>
        <mxCell id="vpfBsJLcN1-FIoaqTsZ0-151" style="edgeStyle=orthogonalEdgeStyle;rounded=0;orthogonalLoop=1;jettySize=auto;html=1;exitX=0;exitY=0.5;exitDx=0;exitDy=0;entryX=1;entryY=0.5;entryDx=0;entryDy=0;endArrow=none;endFill=0;strokeWidth=3;" parent="1" source="vpfBsJLcN1-FIoaqTsZ0-152" target="vpfBsJLcN1-FIoaqTsZ0-178" edge="1">
          <mxGeometry relative="1" as="geometry"/>
        </mxCell>
        <mxCell id="vpfBsJLcN1-FIoaqTsZ0-152" value="Lf" style="rounded=0;whiteSpace=wrap;html=1;strokeWidth=3;" parent="1" vertex="1">
          <mxGeometry x="600.5" y="460" width="80" height="40" as="geometry"/>
        </mxCell>
        <mxCell id="vpfBsJLcN1-FIoaqTsZ0-153" value="" style="endArrow=none;html=1;strokeWidth=3;" parent="1" edge="1">
          <mxGeometry width="50" height="50" relative="1" as="geometry">
            <mxPoint x="690.5" y="660" as="sourcePoint"/>
            <mxPoint x="700.5" y="640" as="targetPoint"/>
          </mxGeometry>
        </mxCell>
        <mxCell id="vpfBsJLcN1-FIoaqTsZ0-154" value="" style="endArrow=none;html=1;strokeWidth=3;" parent="1" edge="1">
          <mxGeometry width="50" height="50" relative="1" as="geometry">
            <mxPoint x="700.5" y="660" as="sourcePoint"/>
            <mxPoint x="710.5" y="640" as="targetPoint"/>
          </mxGeometry>
        </mxCell>
        <mxCell id="vpfBsJLcN1-FIoaqTsZ0-155" value="" style="endArrow=none;html=1;strokeWidth=3;" parent="1" edge="1">
          <mxGeometry width="50" height="50" relative="1" as="geometry">
            <mxPoint x="710.5" y="660" as="sourcePoint"/>
            <mxPoint x="720.5" y="640" as="targetPoint"/>
          </mxGeometry>
        </mxCell>
        <mxCell id="vpfBsJLcN1-FIoaqTsZ0-156" value="" style="endArrow=none;html=1;strokeWidth=3;" parent="1" edge="1">
          <mxGeometry width="50" height="50" relative="1" as="geometry">
            <mxPoint x="720.5" y="660" as="sourcePoint"/>
            <mxPoint x="730.5" y="640" as="targetPoint"/>
          </mxGeometry>
        </mxCell>
        <mxCell id="vpfBsJLcN1-FIoaqTsZ0-157" value="" style="endArrow=none;html=1;strokeWidth=3;" parent="1" edge="1">
          <mxGeometry width="50" height="50" relative="1" as="geometry">
            <mxPoint x="700.5" y="640" as="sourcePoint"/>
            <mxPoint x="740.5" y="640" as="targetPoint"/>
          </mxGeometry>
        </mxCell>
        <mxCell id="vpfBsJLcN1-FIoaqTsZ0-158" value="" style="endArrow=none;html=1;strokeWidth=3;" parent="1" edge="1">
          <mxGeometry width="50" height="50" relative="1" as="geometry">
            <mxPoint x="730.5" y="660" as="sourcePoint"/>
            <mxPoint x="740.5" y="640" as="targetPoint"/>
          </mxGeometry>
        </mxCell>
        <mxCell id="vpfBsJLcN1-FIoaqTsZ0-159" style="edgeStyle=orthogonalEdgeStyle;rounded=0;orthogonalLoop=1;jettySize=auto;html=1;exitX=0.5;exitY=1;exitDx=0;exitDy=0;endArrow=none;endFill=0;strokeWidth=3;" parent="1" source="vpfBsJLcN1-FIoaqTsZ0-161" edge="1">
          <mxGeometry relative="1" as="geometry">
            <mxPoint x="720.5" y="640.3333333333334" as="targetPoint"/>
          </mxGeometry>
        </mxCell>
        <mxCell id="vpfBsJLcN1-FIoaqTsZ0-160" style="edgeStyle=orthogonalEdgeStyle;rounded=0;orthogonalLoop=1;jettySize=auto;html=1;exitX=0.5;exitY=0;exitDx=0;exitDy=0;entryX=1;entryY=0.5;entryDx=0;entryDy=0;endArrow=none;endFill=0;strokeWidth=3;" parent="1" source="vpfBsJLcN1-FIoaqTsZ0-161" target="vpfBsJLcN1-FIoaqTsZ0-152" edge="1">
          <mxGeometry relative="1" as="geometry"/>
        </mxCell>
        <mxCell id="vpfBsJLcN1-FIoaqTsZ0-161" value="" style="ellipse;whiteSpace=wrap;html=1;aspect=fixed;strokeWidth=3;" parent="1" vertex="1">
          <mxGeometry x="680.5" y="520" width="80" height="80" as="geometry"/>
        </mxCell>
        <mxCell id="vpfBsJLcN1-FIoaqTsZ0-162" value="" style="endArrow=none;html=1;strokeWidth=3;" parent="1" edge="1">
          <mxGeometry width="50" height="50" relative="1" as="geometry">
            <mxPoint x="700.5" y="560" as="sourcePoint"/>
            <mxPoint x="740.5" y="560" as="targetPoint"/>
            <Array as="points">
              <mxPoint x="710.5" y="540"/>
              <mxPoint x="730.5" y="580"/>
            </Array>
          </mxGeometry>
        </mxCell>
        <mxCell id="vpfBsJLcN1-FIoaqTsZ0-163" value="" style="endArrow=open;html=1;endFill=0;strokeWidth=3;" parent="1" edge="1">
          <mxGeometry width="50" height="50" relative="1" as="geometry">
            <mxPoint x="780.5" y="600" as="sourcePoint"/>
            <mxPoint x="781" y="520" as="targetPoint"/>
          </mxGeometry>
        </mxCell>
        <mxCell id="vpfBsJLcN1-FIoaqTsZ0-164" value="Uf = 230V" style="text;html=1;align=center;verticalAlign=middle;resizable=0;points=[];;labelBackgroundColor=#ffffff;" parent="vpfBsJLcN1-FIoaqTsZ0-163" vertex="1" connectable="0">
          <mxGeometry x="0.1393" y="-2" relative="1" as="geometry">
            <mxPoint x="27" y="6" as="offset"/>
          </mxGeometry>
        </mxCell>
        <mxCell id="vpfBsJLcN1-FIoaqTsZ0-165" value="PCC" style="text;html=1;strokeColor=none;fillColor=none;align=center;verticalAlign=middle;whiteSpace=wrap;rounded=0;" parent="1" vertex="1">
          <mxGeometry x="460.5" y="445" width="40" height="20" as="geometry"/>
        </mxCell>
        <mxCell id="vpfBsJLcN1-FIoaqTsZ0-166" value="" style="endArrow=block;html=1;endFill=1;strokeWidth=3;" parent="1" edge="1">
          <mxGeometry width="50" height="50" relative="1" as="geometry">
            <mxPoint x="360" y="440" as="sourcePoint"/>
            <mxPoint x="440.5" y="440" as="targetPoint"/>
          </mxGeometry>
        </mxCell>
        <mxCell id="vpfBsJLcN1-FIoaqTsZ0-167" value="iabc" style="text;html=1;align=center;verticalAlign=middle;resizable=0;points=[];;labelBackgroundColor=#ffffff;" parent="vpfBsJLcN1-FIoaqTsZ0-166" vertex="1" connectable="0">
          <mxGeometry x="0.1393" y="-2" relative="1" as="geometry">
            <mxPoint x="-5" y="-12" as="offset"/>
          </mxGeometry>
        </mxCell>
        <mxCell id="vpfBsJLcN1-FIoaqTsZ0-168" style="edgeStyle=orthogonalEdgeStyle;rounded=0;orthogonalLoop=1;jettySize=auto;html=1;exitX=0.5;exitY=1;exitDx=0;exitDy=0;endArrow=none;endFill=0;strokeWidth=3;" parent="1" source="vpfBsJLcN1-FIoaqTsZ0-170" edge="1">
          <mxGeometry relative="1" as="geometry">
            <mxPoint x="540.5" y="640.3333333333334" as="targetPoint"/>
          </mxGeometry>
        </mxCell>
        <mxCell id="vpfBsJLcN1-FIoaqTsZ0-169" style="edgeStyle=orthogonalEdgeStyle;rounded=0;orthogonalLoop=1;jettySize=auto;html=1;exitX=0.5;exitY=0;exitDx=0;exitDy=0;entryX=0.5;entryY=1;entryDx=0;entryDy=0;endArrow=none;endFill=0;strokeWidth=3;" parent="1" source="vpfBsJLcN1-FIoaqTsZ0-170" target="vpfBsJLcN1-FIoaqTsZ0-178" edge="1">
          <mxGeometry relative="1" as="geometry"/>
        </mxCell>
        <mxCell id="vpfBsJLcN1-FIoaqTsZ0-170" value="Rf" style="rounded=0;whiteSpace=wrap;html=1;strokeWidth=3;" parent="1" vertex="1">
          <mxGeometry x="520.5" y="520" width="40" height="80" as="geometry"/>
        </mxCell>
        <mxCell id="vpfBsJLcN1-FIoaqTsZ0-171" value="" style="endArrow=none;html=1;strokeWidth=3;" parent="1" edge="1">
          <mxGeometry width="50" height="50" relative="1" as="geometry">
            <mxPoint x="510.5" y="660" as="sourcePoint"/>
            <mxPoint x="520.5" y="640" as="targetPoint"/>
          </mxGeometry>
        </mxCell>
        <mxCell id="vpfBsJLcN1-FIoaqTsZ0-172" value="" style="endArrow=none;html=1;strokeWidth=3;" parent="1" edge="1">
          <mxGeometry width="50" height="50" relative="1" as="geometry">
            <mxPoint x="520.5" y="660" as="sourcePoint"/>
            <mxPoint x="530.5" y="640" as="targetPoint"/>
          </mxGeometry>
        </mxCell>
        <mxCell id="vpfBsJLcN1-FIoaqTsZ0-173" value="" style="endArrow=none;html=1;strokeWidth=3;" parent="1" edge="1">
          <mxGeometry width="50" height="50" relative="1" as="geometry">
            <mxPoint x="530.5" y="660" as="sourcePoint"/>
            <mxPoint x="540.5" y="640" as="targetPoint"/>
          </mxGeometry>
        </mxCell>
        <mxCell id="vpfBsJLcN1-FIoaqTsZ0-174" value="" style="endArrow=none;html=1;strokeWidth=3;" parent="1" edge="1">
          <mxGeometry width="50" height="50" relative="1" as="geometry">
            <mxPoint x="540.5" y="660" as="sourcePoint"/>
            <mxPoint x="550.5" y="640" as="targetPoint"/>
          </mxGeometry>
        </mxCell>
        <mxCell id="vpfBsJLcN1-FIoaqTsZ0-175" value="" style="endArrow=none;html=1;strokeWidth=3;" parent="1" edge="1">
          <mxGeometry width="50" height="50" relative="1" as="geometry">
            <mxPoint x="520.5" y="640" as="sourcePoint"/>
            <mxPoint x="560.5" y="640" as="targetPoint"/>
          </mxGeometry>
        </mxCell>
        <mxCell id="vpfBsJLcN1-FIoaqTsZ0-176" value="" style="endArrow=none;html=1;strokeWidth=3;" parent="1" edge="1">
          <mxGeometry width="50" height="50" relative="1" as="geometry">
            <mxPoint x="550.5" y="660" as="sourcePoint"/>
            <mxPoint x="560.5" y="640" as="targetPoint"/>
          </mxGeometry>
        </mxCell>
        <mxCell id="vpfBsJLcN1-FIoaqTsZ0-177" style="edgeStyle=orthogonalEdgeStyle;rounded=0;orthogonalLoop=1;jettySize=auto;html=1;exitX=0;exitY=0.5;exitDx=0;exitDy=0;entryX=1;entryY=0.5;entryDx=0;entryDy=0;endArrow=none;endFill=0;strokeWidth=3;" parent="1" source="vpfBsJLcN1-FIoaqTsZ0-178" target="vpfBsJLcN1-FIoaqTsZ0-138" edge="1">
          <mxGeometry relative="1" as="geometry"/>
        </mxCell>
        <mxCell id="vpfBsJLcN1-FIoaqTsZ0-178" value="" style="ellipse;whiteSpace=wrap;html=1;" parent="1" vertex="1">
          <mxGeometry x="535.5" y="475" width="10" height="10" as="geometry"/>
        </mxCell>
        <mxCell id="vpfBsJLcN1-FIoaqTsZ0-187" style="edgeStyle=orthogonalEdgeStyle;rounded=0;orthogonalLoop=1;jettySize=auto;html=1;exitX=0;exitY=0.5;exitDx=0;exitDy=0;entryX=1;entryY=0.5;entryDx=0;entryDy=0;endArrow=none;endFill=0;strokeWidth=3;" parent="1" source="vpfBsJLcN1-FIoaqTsZ0-179" target="vpfBsJLcN1-FIoaqTsZ0-180" edge="1">
          <mxGeometry relative="1" as="geometry"/>
        </mxCell>
        <mxCell id="vpfBsJLcN1-FIoaqTsZ0-179" value="R+Ron+sLf" style="rounded=0;whiteSpace=wrap;html=1;strokeWidth=3;" parent="1" vertex="1">
          <mxGeometry x="360.5" y="460" width="80" height="40" as="geometry"/>
        </mxCell>
        <mxCell id="vpfBsJLcN1-FIoaqTsZ0-210" style="edgeStyle=orthogonalEdgeStyle;rounded=0;orthogonalLoop=1;jettySize=auto;html=1;exitX=0.5;exitY=1;exitDx=0;exitDy=0;endArrow=none;endFill=0;strokeWidth=3;" parent="1" source="vpfBsJLcN1-FIoaqTsZ0-180" edge="1">
          <mxGeometry relative="1" as="geometry">
            <mxPoint x="279.6896551724137" y="640" as="targetPoint"/>
          </mxGeometry>
        </mxCell>
        <mxCell id="vpfBsJLcN1-FIoaqTsZ0-180" value="" style="rounded=0;whiteSpace=wrap;html=1;labelBackgroundColor=none;fillColor=#FFFFFF;strokeWidth=3;" parent="1" vertex="1">
          <mxGeometry x="240" y="440" width="80" height="80" as="geometry"/>
        </mxCell>
        <mxCell id="vpfBsJLcN1-FIoaqTsZ0-181" value="" style="endArrow=none;html=1;" parent="1" edge="1">
          <mxGeometry width="50" height="50" relative="1" as="geometry">
            <mxPoint x="270" y="495" as="sourcePoint"/>
            <mxPoint x="270" y="465" as="targetPoint"/>
          </mxGeometry>
        </mxCell>
        <mxCell id="vpfBsJLcN1-FIoaqTsZ0-182" value="" style="endArrow=none;html=1;" parent="1" edge="1">
          <mxGeometry width="50" height="50" relative="1" as="geometry">
            <mxPoint x="270" y="475" as="sourcePoint"/>
            <mxPoint x="290" y="465" as="targetPoint"/>
          </mxGeometry>
        </mxCell>
        <mxCell id="vpfBsJLcN1-FIoaqTsZ0-183" value="" style="endArrow=block;html=1;endFill=1;" parent="1" edge="1">
          <mxGeometry width="50" height="50" relative="1" as="geometry">
            <mxPoint x="270" y="485" as="sourcePoint"/>
            <mxPoint x="290" y="495" as="targetPoint"/>
          </mxGeometry>
        </mxCell>
        <mxCell id="vpfBsJLcN1-FIoaqTsZ0-191" value="" style="endArrow=none;html=1;" parent="1" edge="1">
          <mxGeometry width="50" height="50" relative="1" as="geometry">
            <mxPoint x="266" y="495" as="sourcePoint"/>
            <mxPoint x="266" y="465" as="targetPoint"/>
          </mxGeometry>
        </mxCell>
        <mxCell id="vpfBsJLcN1-FIoaqTsZ0-192" value="" style="endArrow=none;html=1;" parent="1" edge="1">
          <mxGeometry width="50" height="50" relative="1" as="geometry">
            <mxPoint x="266" y="495" as="sourcePoint"/>
            <mxPoint x="250" y="495" as="targetPoint"/>
          </mxGeometry>
        </mxCell>
        <mxCell id="vpfBsJLcN1-FIoaqTsZ0-193" value="" style="endArrow=none;html=1;" parent="1" edge="1">
          <mxGeometry width="50" height="50" relative="1" as="geometry">
            <mxPoint x="300" y="460" as="sourcePoint"/>
            <mxPoint x="290" y="460" as="targetPoint"/>
          </mxGeometry>
        </mxCell>
        <mxCell id="vpfBsJLcN1-FIoaqTsZ0-194" value="" style="endArrow=none;html=1;" parent="1" edge="1">
          <mxGeometry width="50" height="50" relative="1" as="geometry">
            <mxPoint x="290" y="465" as="sourcePoint"/>
            <mxPoint x="290" y="445" as="targetPoint"/>
          </mxGeometry>
        </mxCell>
        <mxCell id="vpfBsJLcN1-FIoaqTsZ0-195" value="" style="endArrow=none;html=1;" parent="1" edge="1">
          <mxGeometry width="50" height="50" relative="1" as="geometry">
            <mxPoint x="290" y="515" as="sourcePoint"/>
            <mxPoint x="290" y="495" as="targetPoint"/>
          </mxGeometry>
        </mxCell>
        <mxCell id="vpfBsJLcN1-FIoaqTsZ0-196" value="" style="endArrow=none;html=1;" parent="1" edge="1">
          <mxGeometry width="50" height="50" relative="1" as="geometry">
            <mxPoint x="300" y="500" as="sourcePoint"/>
            <mxPoint x="290" y="500" as="targetPoint"/>
          </mxGeometry>
        </mxCell>
        <mxCell id="vpfBsJLcN1-FIoaqTsZ0-197" value="" style="endArrow=none;html=1;" parent="1" edge="1">
          <mxGeometry width="50" height="50" relative="1" as="geometry">
            <mxPoint x="300" y="500" as="sourcePoint"/>
            <mxPoint x="300" y="485" as="targetPoint"/>
          </mxGeometry>
        </mxCell>
        <mxCell id="vpfBsJLcN1-FIoaqTsZ0-199" value="" style="endArrow=none;html=1;" parent="1" edge="1">
          <mxGeometry width="50" height="50" relative="1" as="geometry">
            <mxPoint x="295" y="485" as="sourcePoint"/>
            <mxPoint x="305" y="485" as="targetPoint"/>
          </mxGeometry>
        </mxCell>
        <mxCell id="vpfBsJLcN1-FIoaqTsZ0-200" value="" style="endArrow=none;html=1;" parent="1" edge="1">
          <mxGeometry width="50" height="50" relative="1" as="geometry">
            <mxPoint x="300" y="475" as="sourcePoint"/>
            <mxPoint x="305" y="485" as="targetPoint"/>
          </mxGeometry>
        </mxCell>
        <mxCell id="vpfBsJLcN1-FIoaqTsZ0-201" value="" style="endArrow=none;html=1;" parent="1" edge="1">
          <mxGeometry width="50" height="50" relative="1" as="geometry">
            <mxPoint x="300" y="475" as="sourcePoint"/>
            <mxPoint x="295" y="485" as="targetPoint"/>
          </mxGeometry>
        </mxCell>
        <mxCell id="vpfBsJLcN1-FIoaqTsZ0-202" value="" style="endArrow=none;html=1;" parent="1" edge="1">
          <mxGeometry width="50" height="50" relative="1" as="geometry">
            <mxPoint x="295" y="475" as="sourcePoint"/>
            <mxPoint x="305" y="475" as="targetPoint"/>
          </mxGeometry>
        </mxCell>
        <mxCell id="vpfBsJLcN1-FIoaqTsZ0-203" value="" style="endArrow=none;html=1;" parent="1" edge="1">
          <mxGeometry width="50" height="50" relative="1" as="geometry">
            <mxPoint x="300" y="475" as="sourcePoint"/>
            <mxPoint x="300" y="460" as="targetPoint"/>
          </mxGeometry>
        </mxCell>
        <mxCell id="vpfBsJLcN1-FIoaqTsZ0-204" value="" style="endArrow=none;html=1;strokeWidth=3;" parent="1" edge="1">
          <mxGeometry width="50" height="50" relative="1" as="geometry">
            <mxPoint x="250.49999999999977" y="660" as="sourcePoint"/>
            <mxPoint x="260.4999999999998" y="640" as="targetPoint"/>
          </mxGeometry>
        </mxCell>
        <mxCell id="vpfBsJLcN1-FIoaqTsZ0-205" value="" style="endArrow=none;html=1;strokeWidth=3;" parent="1" edge="1">
          <mxGeometry width="50" height="50" relative="1" as="geometry">
            <mxPoint x="260.4999999999998" y="660" as="sourcePoint"/>
            <mxPoint x="270.4999999999998" y="640" as="targetPoint"/>
          </mxGeometry>
        </mxCell>
        <mxCell id="vpfBsJLcN1-FIoaqTsZ0-206" value="" style="endArrow=none;html=1;strokeWidth=3;" parent="1" edge="1">
          <mxGeometry width="50" height="50" relative="1" as="geometry">
            <mxPoint x="270.4999999999998" y="660" as="sourcePoint"/>
            <mxPoint x="280.4999999999998" y="640" as="targetPoint"/>
          </mxGeometry>
        </mxCell>
        <mxCell id="vpfBsJLcN1-FIoaqTsZ0-207" value="" style="endArrow=none;html=1;strokeWidth=3;" parent="1" edge="1">
          <mxGeometry width="50" height="50" relative="1" as="geometry">
            <mxPoint x="280.4999999999998" y="660" as="sourcePoint"/>
            <mxPoint x="290.4999999999998" y="640" as="targetPoint"/>
          </mxGeometry>
        </mxCell>
        <mxCell id="vpfBsJLcN1-FIoaqTsZ0-208" value="" style="endArrow=none;html=1;strokeWidth=3;" parent="1" edge="1">
          <mxGeometry width="50" height="50" relative="1" as="geometry">
            <mxPoint x="260.4999999999998" y="640" as="sourcePoint"/>
            <mxPoint x="300.4999999999998" y="640" as="targetPoint"/>
          </mxGeometry>
        </mxCell>
        <mxCell id="vpfBsJLcN1-FIoaqTsZ0-209" value="" style="endArrow=none;html=1;strokeWidth=3;" parent="1" edge="1">
          <mxGeometry width="50" height="50" relative="1" as="geometry">
            <mxPoint x="290.4999999999998" y="660" as="sourcePoint"/>
            <mxPoint x="300.4999999999998" y="640" as="targetPoint"/>
          </mxGeometry>
        </mxCell>
        <mxCell id="vpfBsJLcN1-FIoaqTsZ0-211" value="" style="endArrow=open;html=1;endFill=0;strokeWidth=3;" parent="1" edge="1">
          <mxGeometry width="50" height="50" relative="1" as="geometry">
            <mxPoint x="340" y="630" as="sourcePoint"/>
            <mxPoint x="340" y="490" as="targetPoint"/>
          </mxGeometry>
        </mxCell>
        <mxCell id="vpfBsJLcN1-FIoaqTsZ0-213" value="Ut" style="text;html=1;align=center;verticalAlign=middle;resizable=0;points=[];;labelBackgroundColor=#ffffff;" parent="vpfBsJLcN1-FIoaqTsZ0-211" vertex="1" connectable="0">
          <mxGeometry x="0.4267" y="-2" relative="1" as="geometry">
            <mxPoint x="-12" y="30" as="offset"/>
          </mxGeometry>
        </mxCell>
        <mxCell id="vpfBsJLcN1-FIoaqTsZ0-214" value="" style="endArrow=open;html=1;endFill=0;strokeWidth=3;" parent="1" edge="1">
          <mxGeometry width="50" height="50" relative="1" as="geometry">
            <mxPoint x="480" y="630" as="sourcePoint"/>
            <mxPoint x="480" y="510" as="targetPoint"/>
          </mxGeometry>
        </mxCell>
        <mxCell id="vpfBsJLcN1-FIoaqTsZ0-215" value="Us" style="text;html=1;align=center;verticalAlign=middle;resizable=0;points=[];;labelBackgroundColor=#ffffff;" parent="vpfBsJLcN1-FIoaqTsZ0-214" vertex="1" connectable="0">
          <mxGeometry x="0.4267" y="-2" relative="1" as="geometry">
            <mxPoint x="-12" y="16" as="offset"/>
          </mxGeometry>
        </mxCell>
      </root>
    </mxGraphModel>
  </diagram>
</mxfile>
